<svg xmlns="http://www.w3.org/2000/svg" viewBox="0 0 500.5 500.5"><defs><style>.cls-1,.cls-3{fill:#0f0c0e;}.cls-1,.cls-2,.cls-5{stroke:#fff;}.cls-1,.cls-2,.cls-28,.cls-3,.cls-5,.cls-6{stroke-miterlimit:10;}.cls-2{fill:#e6e6e6;}.cls-3,.cls-6{stroke:#999;}.cls-3{opacity:0.13;}.cls-4{opacity:0.3;}.cls-28,.cls-5{fill:none;}.cls-6{fill:#fff;}.cls-7{font-size:6px;font-family:Rockwell;}.cls-8{letter-spacing:-0.08em;}.cls-9{letter-spacing:-0.03em;}.cls-10{letter-spacing:-0.02em;}.cls-11{letter-spacing:-0.01em;}.cls-12{letter-spacing:-0.1em;}.cls-13{letter-spacing:-0.12em;}.cls-14{letter-spacing:0em;}.cls-15{letter-spacing:-0.04em;}.cls-16{letter-spacing:-0.01em;}.cls-17{letter-spacing:0em;}.cls-18{letter-spacing:-0.02em;}.cls-19{letter-spacing:-0.02em;}.cls-20{letter-spacing:0em;}.cls-21{letter-spacing:-0.05em;}.cls-22{letter-spacing:-0.02em;}.cls-23{letter-spacing:0.01em;}.cls-24{letter-spacing:0em;}.cls-25{letter-spacing:-0.02em;}.cls-26{font-size:9.03px;font-family:Rockwell-ExtraBold, Rockwell Extra Bold;font-weight:800;}.cls-27{font-size:26.33px;font-family:Magneto-Bold, Magneto;font-weight:700;}.cls-28{stroke:#000;stroke-width:26px;}</style></defs><title>Asset 1</title><g id="Layer_2" data-name="Layer 2"><g id="Layer_1-2" data-name="Layer 1"><circle class="cls-1" cx="250.25" cy="250.25" r="249.75"/><circle class="cls-2" cx="250.25" cy="250.25" r="107.56"/><path class="cls-3" d="M266.55,352.71a8,8,0,0,0,4.2,2,16.17,16.17,0,0,0,5.42,0,31,31,0,0,0,9.36-3c3.82-1.91,6-5.11,7.33-9a27.91,27.91,0,0,0,.48-14.4,48.08,48.08,0,0,0-3.75-10.62c-2.13-4.67-4.23-9.35-6.34-14-.06-.14-.14-.28-.24-.49l-1.27.58a45.21,45.21,0,0,1-30.94,2.2,46.12,46.12,0,0,1-25.4-16.85,41.3,41.3,0,0,1-8.23-20.6c-1.14-9.79.54-19.18,4.07-28.3a114,114,0,0,1,12.08-22.31c2.11-3.14,4.31-6.23,6.49-9.32a1,1,0,0,0,.12-1.09c-2.2-5-4.47-9.93-6.53-15A71.39,71.39,0,0,1,228,172a54.22,54.22,0,0,1,3.48-25,19,19,0,0,1,3.8-6.14,9.41,9.41,0,0,1,11.62-2.22,20.71,20.71,0,0,1,7.55,6.54,41.44,41.44,0,0,1,6.26,12.12c4.3,12.85,4,25.79.68,38.76a111.63,111.63,0,0,1-8.81,22.63c-.33.64-.61,1.3-1,1.9a1.69,1.69,0,0,0-.07,1.8c3,6.49,6,13,8.92,19.49.1.22.21.44.29.6,1.47-.43,2.87-.91,4.3-1.23a27.09,27.09,0,0,1,18.29,2.43,35,35,0,0,1,10.16,7.18,25.82,25.82,0,0,1,6.64,13.65,38.93,38.93,0,0,1-4.63,27,28.12,28.12,0,0,1-7.84,8.83c-.4.29-.35.51-.18.88,2.81,6.13,5.65,12.25,8.37,18.41a35.57,35.57,0,0,1,3.4,17c-.71,9.79-5.74,16.51-14.74,20.26a23.62,23.62,0,0,1-13.07,2c-9-1.5-15.33-6.61-18.6-15.14a13.12,13.12,0,1,1,14.56,8.81ZM248.49,226.45c-.9,1.57-1.72,3-2.56,4.48q-6.17,10.57-12.33,21.14a30.87,30.87,0,0,0-3.54,9,32,32,0,0,0,3.79,23.33,34.94,34.94,0,0,0,17,15.52c8.61,3.6,17.33,3.41,26,.13,1.33-.51,2.59-1.18,3.94-1.8-6.07-13.47-12.09-26.81-18.1-40.17l-.33.14-.3.15a15.48,15.48,0,0,0-8.44,12.49,27.09,27.09,0,0,0,1.51,11A12.27,12.27,0,0,0,261,289c1.93,1.14,3.93,2.16,5.89,3.23l.62.33,0,.18a2.22,2.22,0,0,1-.51.06,38,38,0,0,1-12.42-3.5c-9.16-4.57-13.66-13-12-23.15,1.43-8.92,6.1-15.86,13.49-21l.72-.49Zm-5.35-22.61c.86-1.24,1.68-2.38,2.47-3.54a65.36,65.36,0,0,0,6-10,53.27,53.27,0,0,0,3.7-14,39.77,39.77,0,0,0-.34-15.22A18.55,18.55,0,0,0,251.8,154a3.35,3.35,0,0,0-3.68-1.3,9.74,9.74,0,0,0-4.15,2.25,22.74,22.74,0,0,0-6.76,10.41,38.07,38.07,0,0,0-1.06,19.3C237.4,191.38,240.16,197.58,243.14,203.84Zm41.7,91.52a19.73,19.73,0,0,0,6.27-8.68,28,28,0,0,0,1.28-11.6A19.89,19.89,0,0,0,287,262.47c-5-5.13-11.12-7-18.12-6.23-.56.06-1.12.18-1.77.28Z"/><g class="cls-4"><circle class="cls-1" cx="250.25" cy="250.25" r="242.4"/><circle class="cls-1" cx="250.25" cy="250.25" r="233.54"/><circle class="cls-1" cx="250.25" cy="250.25" r="224.68"/><circle class="cls-1" cx="250.25" cy="250.25" r="215.82"/><circle class="cls-1" cx="250.25" cy="250.25" r="206.96"/><circle class="cls-1" cx="250.25" cy="250.25" r="198.1"/><circle class="cls-1" cx="250.25" cy="250.25" r="189.24"/><circle class="cls-1" cx="250.25" cy="250.25" r="180.38"/><circle class="cls-1" cx="250.25" cy="250.25" r="171.52"/><circle class="cls-1" cx="250.25" cy="250.25" r="162.66"/><circle class="cls-1" cx="250.25" cy="250.25" r="153.8"/><circle class="cls-1" cx="250.25" cy="250.25" r="144.94"/><circle class="cls-1" cx="250.25" cy="250.25" r="136.09"/><circle class="cls-1" cx="250.25" cy="250.25" r="127.23"/><circle class="cls-1" cx="250.25" cy="250.25" r="118.37"/><circle class="cls-1" cx="250.25" cy="250.25" r="109.51"/><circle class="cls-5" cx="250.25" cy="250.25" r="100.65"/></g><circle class="cls-6" cx="250.25" cy="250.25" r="6.39"/><text class="cls-7" transform="translate(164.11 244.28)">1<tspan class="cls-8" x="3.25" y="0">.</tspan><tspan x="4.52" y="0" xml:space="preserve"> O</tspan><tspan class="cls-9" x="10.83" y="0">r</tspan><tspan class="cls-10" x="13.16" y="0">g</tspan><tspan x="16.82" y="0">ani</tspan><tspan class="cls-11" x="25.19" y="0">z</tspan><tspan x="27.82" y="0">e</tspan><tspan class="cls-12" x="31.26" y="0"> </tspan><tspan class="cls-13" x="32.16" y="0">Y</tspan><tspan class="cls-14" x="35.32" y="0">our Collection</tspan><tspan x="0" y="7.2">2</tspan><tspan class="cls-8" x="3.25" y="7.2">.</tspan><tspan x="4.52" y="7.2" xml:space="preserve"> Sea</tspan><tspan class="cls-15" x="15.83" y="7.2">r</tspan><tspan x="18.09" y="7.2">ch </tspan><tspan class="cls-8" x="26.16" y="7.2">F</tspan><tspan x="28.99" y="7.2">or Al</tspan><tspan class="cls-16" x="42.37" y="7.2">b</tspan><tspan class="cls-17" x="46.19" y="7.2">ums</tspan><tspan x="0" y="14.4">3</tspan><tspan class="cls-8" x="3.25" y="14.4">.</tspan><tspan x="4.52" y="14.4" xml:space="preserve"> Disc</tspan><tspan class="cls-15" x="18.02" y="14.4">o</tspan><tspan class="cls-18" x="21.22" y="14.4">v</tspan><tspan x="24.33" y="14.4">er N</tspan><tspan class="cls-19" x="36.08" y="14.4">e</tspan><tspan class="cls-20" x="39.4" y="14.4">w Music</tspan><tspan x="0" y="21.6">4</tspan><tspan class="cls-8" x="3.25" y="21.6">.</tspan><tspan x="4.52" y="21.6" xml:space="preserve"> Build a</tspan><tspan class="cls-8" x="24.84" y="21.6"> </tspan><tspan x="25.86" y="21.6">Wish List</tspan><tspan x="0" y="28.8">5</tspan><tspan class="cls-8" x="3.25" y="28.8">.</tspan><tspan x="4.52" y="28.8" xml:space="preserve"> Enj</tspan><tspan class="cls-21" x="14.96" y="28.8">o</tspan><tspan x="18.11" y="28.8">y Music E</tspan><tspan class="cls-22" x="44.49" y="28.8">v</tspan><tspan x="47.59" y="28.8">e</tspan><tspan class="cls-23" x="51.03" y="28.8">r</tspan><tspan class="cls-24" x="53.62" y="28.8">y D</tspan><tspan class="cls-25" x="62.87" y="28.8">a</tspan><tspan class="cls-24" x="65.94" y="28.8">y</tspan></text><text class="cls-26" transform="translate(283.31 259.55)">SIDE ONE</text><text class="cls-27" transform="translate(169.41 213.05)">AudioPhile</text><circle class="cls-28" cx="250.25" cy="250.25" r="116.6"/></g></g></svg>