<svg xmlns="http://www.w3.org/2000/svg" xmlnsXlink='http://www.w3.org/1999/xlink' viewBox="0 0 283.21 49.21">
    <title>Loading</title>
    <g id="Layer_2" data-name="Layer 2">
        <g id="Layer_1-2" data-name="Layer 1">
            <path d="M55.63,6.2a5.52,5.52,0,0,1-2.11,4.39,7,7,0,0,1-4.64,1.7,6.74,6.74,0,0,1-5-2,5.94,5.94,0,0,1-1.76-4.92A5,5,0,0,0,39.74,6Q36.13,7.68,35.32,18.1t-12,14.15H53.4c-.73,2.7-3,4.06-6.81,4.06H0q2.13-6.15,5.26-6.15a19.16,19.16,0,0,1,4.85,1.12,18.55,18.55,0,0,0,5,1.12q4.36,0,7.14-7.95l4-11.7Q30.67,0,48.27,0a8.19,8.19,0,0,1,5,1.57A5.53,5.53,0,0,1,55.63,6.2Z"/>
            <path d="M96.66,19q-1,4.07-6.09,4.07H74.67a3.91,3.91,0,0,1,1.37,2,6.18,6.18,0,0,1,.44,2.58,8.68,8.68,0,0,1-3.74,6.65,14.12,14.12,0,0,1-8.37,2.33q-6,.06-9.22-2.36a6.67,6.67,0,0,1-2.87-5.61,7.14,7.14,0,0,1,.13-1.37,8.92,8.92,0,0,1,3.8-6A15.51,15.51,0,0,1,65.15,19ZM69,23.11H63.17l-2.28,6.5a2.85,2.85,0,0,0-.18,1c0,1.46,1.35,2.18,4.06,2.18.32,0,.6,0,.84,0Z"/>
            <path d="M116.47,32.25c-.82,2.7-2.89,4.06-6.22,4.06h-9.63q-4.11,0-4.11-2.64a8.71,8.71,0,0,1-6.8,3.15A6.58,6.58,0,0,1,84.88,35,6.43,6.43,0,0,1,83,30.21a9.92,9.92,0,0,1,4.06-8.37A14.59,14.59,0,0,1,96.21,19H110.7l-4.77,13.21Zm-16.38-9.14H94.48L92.7,29a3.93,3.93,0,0,0-.15,1q0,2.21,4.32,2.21Z"/>
            <path d="M150.36,32.25c-.84,2.7-2.92,4.06-6.22,4.06h-9.67c-2.79,0-4.17-.88-4.11-2.64a9.36,9.36,0,0,1-7.49,3.27,7.13,7.13,0,0,1-5-1.72,6.18,6.18,0,0,1-2-4.83,10,10,0,0,1,4.47-8.63A16.62,16.62,0,0,1,130.05,19h5.28l4.75-13.4h9.24l-9.44,26.61Zm-16.42-9.14h-6.45l-1.93,5.45a4.43,4.43,0,0,0-.26,1.38c0,1.13.72,1.85,2.16,2.15a19.77,19.77,0,0,0,3.25.16Z"/>
            <path d="M169.61,32.25a5.25,5.25,0,0,1-2.74,3.3,7.16,7.16,0,0,1-3.25.76h-10q-3.63,0-3.63-3.05a5.67,5.67,0,0,1,.35-1.85L154.73,19H164l-4.7,13.21ZM167.78,8.63a5.58,5.58,0,0,1-2,4.32,6.84,6.84,0,0,1-4.73,1.78A6.91,6.91,0,0,1,156.29,13a5.69,5.69,0,0,1,0-8.61,6.91,6.91,0,0,1,4.79-1.78,6.84,6.84,0,0,1,4.73,1.78A5.57,5.57,0,0,1,167.78,8.63Z"/>
            <path d="M204.39,32.25a5.15,5.15,0,0,1-2.92,3.3,7.92,7.92,0,0,1-3.42.76H187.92c-2.32,0-3.48-.76-3.48-2.29a5.63,5.63,0,0,1,.35-1.77l1.93-5.46L178,34.18q-3.08,2.13-5.05,2.13h-4.68L174.33,19h9.17l-2.87,8.13,7.74-6.35a10.12,10.12,0,0,1,6.83-2.46A2.32,2.32,0,0,1,197.69,21a6.54,6.54,0,0,1-.4,2.11L194,32.25Z"/>
            <path d="M237.05,32.25c-.78,2.7-3.3,4.06-7.54,4.06H225a32.28,32.28,0,0,1-4.5,8.89,10.27,10.27,0,0,1-8.3,4,6.32,6.32,0,0,1-4.53-1.59A5.75,5.75,0,0,1,206,43.21q0-5.51,3.22-7.1a7.68,7.68,0,0,1-3.93-2.21,6.35,6.35,0,0,1-1.8-4.55,7.86,7.86,0,0,1,.33-2.18,9.77,9.77,0,0,1,4.79-6.25A15.43,15.43,0,0,1,216.4,19h14.53l-4.65,13.21ZM215.85,37a4,4,0,0,0-3.09,1.9,6.18,6.18,0,0,0-1.43,3.77,3.15,3.15,0,0,0,1.44,2.69Zm4.46-13.88h-5.4l-2,6.44a3.68,3.68,0,0,0-.18,1.07q0,2.16,3.15,2.16l.59,0,.6,0Z"/>
            <path id="_Dot_" data-name="&lt;Dot&gt;" d="M251.57,33a3.76,3.76,0,0,1-1.29,2.87,4.46,4.46,0,0,1-3.13,1.2A4.41,4.41,0,0,1,244,35.9a3.84,3.84,0,0,1,0-5.74A4.44,4.44,0,0,1,247.15,29a4.49,4.49,0,0,1,3.13,1.19A3.79,3.79,0,0,1,251.57,33Z"/>
            <path id="_Dot_2" data-name="&lt;Dot&gt;" d="M267.39,33a3.74,3.74,0,0,1-1.3,2.87,4.68,4.68,0,0,1-6.26,0,3.86,3.86,0,0,1,0-5.74,4.71,4.71,0,0,1,6.26,0A3.77,3.77,0,0,1,267.39,33Z"/>
            <path id="_Dot_3" data-name="&lt;Dot&gt;" d="M283.21,33a3.74,3.74,0,0,1-1.3,2.87,4.68,4.68,0,0,1-6.26,0,3.86,3.86,0,0,1,0-5.74,4.71,4.71,0,0,1,6.26,0A3.77,3.77,0,0,1,283.21,33Z"/>
        </g>
    </g>
</svg>