<svg xmlns="http://www.w3.org/2000/svg" viewBox="0 0 310.79 36.5"><defs><style>.cls-1{fill:#343a40;}</style></defs><title>audiophile-text-white</title><g id="Layer_2" data-name="Layer 2"><g id="Layer_1-2" data-name="Layer 1"><path class="cls-1" d="M69.46,17.75c-.83,2.6-2.82,3.91-6,3.91H49L44.41,34.35H35.67l4.59-12.69h-7.5Q20.46,36.5,8.72,36.5A12,12,0,0,1,3,35.23,5.11,5.11,0,0,1,0,30.49a7.92,7.92,0,0,1,2.2-5.2c2.36-2.71,5.93-4.73,10.72-6a47.5,47.5,0,0,1,12.4-1.51h4.73L44.85,0H56.62l-6.3,17.75Zm-42.7,3.91q-9.17,0-12.84,2.63c-2,1.47-3.06,3-3.06,4.67,0,1.39.74,2.09,2.2,2.09,2,0,4.54-1.13,7.57-3.41A27.78,27.78,0,0,0,26.76,21.66ZM46.7,4.05,36,17.75h5.45Z"/><path class="cls-1" d="M89.26,30.44A4.81,4.81,0,0,1,87,33.52a5.53,5.53,0,0,1-2.9.83H73.9c-2.39,0-3.59-.76-3.59-2.29a6.33,6.33,0,0,1-5.15,2.29h-4.3a4.34,4.34,0,0,1-3.07-1,3.27,3.27,0,0,1-1-2.52A5.4,5.4,0,0,1,57.1,29l4.11-11.25h8.86L65.5,30.44h5L75,17.75h8.76L79.32,30.44Z"/><path class="cls-1" d="M121.8,30.44c-.81,2.61-2.81,3.91-6,3.91h-9.3q-4,0-4-2.54A9,9,0,0,1,95.36,35a6.82,6.82,0,0,1-4.78-1.66,5.92,5.92,0,0,1-1.91-4.64,9.57,9.57,0,0,1,4.3-8.3,16,16,0,0,1,9.3-2.61h5.08l4.56-12.89h8.89l-9.08,25.58ZM106,21.66H99.8L98,26.9a4.3,4.3,0,0,0-.24,1.32c0,1.09.69,1.78,2.07,2.08a20.39,20.39,0,0,0,3.13.14Z"/><path class="cls-1" d="M140.31,30.44a5.08,5.08,0,0,1-2.64,3.18,6.76,6.76,0,0,1-3.12.73H124.9q-3.5,0-3.49-2.93a5.47,5.47,0,0,1,.34-1.78L126,17.75h8.86l-4.51,12.69Zm-1.76-22.7a5.39,5.39,0,0,1-1.89,4.15,7,7,0,0,1-9.16,0,5.39,5.39,0,0,1-1.89-4.15,5.38,5.38,0,0,1,1.89-4.13,7,7,0,0,1,9.16,0A5.38,5.38,0,0,1,138.55,7.74Z"/><path class="cls-1" d="M181.86,17.75c-.65,2.6-2.6,3.91-5.86,3.91H160.72a3.87,3.87,0,0,1,1.32,2,5.81,5.81,0,0,1,.41,2.48,8.35,8.35,0,0,1-3.59,6.4,13.66,13.66,0,0,1-8.05,2.24c-3.85,0-6.8-.72-8.87-2.27a6.4,6.4,0,0,1-2.76-5.39,7.38,7.38,0,0,1,.13-1.32A8.51,8.51,0,0,1,143,20a14.89,14.89,0,0,1,8.59-2.22Zm-26.61,3.91h-5.59l-2.2,6.25a2.86,2.86,0,0,0-.17.92q0,2.1,3.91,2.1l.8,0Z"/><path class="cls-1" d="M213.4,8.15q0,7.23-10,12.41a58.65,58.65,0,0,1-15.87,5.29l-3,8.5h-8.91l8.91-25h8.84L189.21,21a27.15,27.15,0,0,0,8.4-3.34q5.1-3.19,5.3-7.45c.08-1.82-.53-3-1.84-3.58a11.61,11.61,0,0,0-4.22-.52H171.9L175.71,0h25.14a20.49,20.49,0,0,1,8.43,1.37A6.87,6.87,0,0,1,213.4,8.15Z"/><path class="cls-1" d="M242.8,30.44a5,5,0,0,1-2.71,3.18,7.15,7.15,0,0,1-3.2.73h-10.4c-1.84,0-2.76-.67-2.76-2a6.22,6.22,0,0,1,.37-1.91l1.75-5.2-9.25,7.62A5.44,5.44,0,0,1,213,34.35h-5L218.41,4.86h8.79l-7.35,20.75,7.44-6.1a10,10,0,0,1,6.55-2.37,2.18,2.18,0,0,1,2.44,2.49,6.07,6.07,0,0,1-.44,2.07l-3.1,8.74Z"/><path class="cls-1" d="M261.4,30.44a5,5,0,0,1-2.64,3.18,6.76,6.76,0,0,1-3.12.73H246q-3.5,0-3.5-2.93a5.24,5.24,0,0,1,.35-1.78l4.24-11.89H256l-4.52,12.69Zm-1.76-22.7a5.39,5.39,0,0,1-1.89,4.15,7,7,0,0,1-9.15,0,5.36,5.36,0,0,1-1.9-4.15,5.35,5.35,0,0,1,1.9-4.13,7,7,0,0,1,9.15,0A5.38,5.38,0,0,1,259.64,7.74Z"/><path class="cls-1" d="M280.3,30.44a4.89,4.89,0,0,1-2.81,3.18,7.55,7.55,0,0,1-3.3.73h-9.4c-2.4,0-3.61-.82-3.61-2.47a4.62,4.62,0,0,1,.27-1.44l9.06-25.53h8.64L270,30.44Z"/><path class="cls-1" d="M310.79,30.44a4.82,4.82,0,0,1-2.34,3,7.35,7.35,0,0,1-3.74,1h-13.6q-11.87,0-11.86-7.15A8.14,8.14,0,0,1,283.3,20a15,15,0,0,1,8.3-2.25h3.54a14.53,14.53,0,0,1,5.45.95c2.08.85,3.17,2.13,3.27,3.86a4.79,4.79,0,0,1-2.52,4.34h-8.08l2.64-5.24h-5.15l-2,5.88a2.82,2.82,0,0,0-.18.93c0,1.32,1.06,2,3.18,2Z"/></g></g></svg>