<svg xmlns="http://www.w3.org/2000/svg" viewBox="0 0 295.61 295.61"><defs><style>.cls-1{fill:#e6e6e6;stroke:#e6e6e6;stroke-width:10px;}.cls-1,.cls-2,.cls-3{stroke-miterlimit:10;}.cls-2{fill:none;stroke:#000;stroke-width:9px;}.cls-3{fill:#0f0c0e;stroke:#b3b3b3;opacity:0.13;}</style></defs><title>audiophile-logo</title><g id="Layer_2" data-name="Layer 2"><g id="Layer_1-2" data-name="Layer 1"><circle class="cls-1" cx="147.8" cy="148.23" r="132.19"/><path d="M73.7,145.44q-1.08,3.38-5.14,3.37H56.06l-4,10.95H44.56l4-10.95H42.06q-10.62,12.8-20.74,12.8a10.34,10.34,0,0,1-5-1.09,4.42,4.42,0,0,1-2.55-4.09A6.84,6.84,0,0,1,15.7,152c2-2.35,5.12-4.08,9.24-5.2a41.05,41.05,0,0,1,10.7-1.31h4.08l12.76-15.3H62.63l-5.44,15.3Zm-36.82,3.37q-7.89,0-11.08,2.27-2.62,1.9-2.63,4c0,1.2.63,1.81,1.9,1.81,1.74,0,3.91-1,6.52-2.95A23.91,23.91,0,0,0,36.88,148.81Zm17.2-15.18-9.22,11.81h4.69Z"/><path d="M90.77,156.39A4.17,4.17,0,0,1,88.84,159a4.74,4.74,0,0,1-2.51.72h-8.8q-3.09,0-3.09-2a5.49,5.49,0,0,1-4.45,2h-3.7a3.72,3.72,0,0,1-2.65-.89,2.8,2.8,0,0,1-.89-2.16,4.4,4.4,0,0,1,.3-1.56l3.53-9.71h7.65l-3.94,10.95h4.27l3.92-10.95H86L82.2,156.39Z"/><path d="M118.84,156.39c-.71,2.25-2.42,3.37-5.16,3.37h-8c-2.32,0-3.46-.73-3.41-2.19A7.76,7.76,0,0,1,96,160.28a5.88,5.88,0,0,1-4.13-1.43,5.11,5.11,0,0,1-1.64-4,8.27,8.27,0,0,1,3.7-7.16,13.8,13.8,0,0,1,8-2.25h4.38l3.94-11.11H118l-7.83,22.06Zm-13.62-7.58H99.87l-1.6,4.53a3.64,3.64,0,0,0-.21,1.13c0,.94.59,1.54,1.79,1.79a16.61,16.61,0,0,0,2.69.13Z"/><path d="M134.79,156.39a4.34,4.34,0,0,1-2.27,2.74,5.88,5.88,0,0,1-2.69.63h-8.32c-2,0-3-.84-3-2.53a4.73,4.73,0,0,1,.29-1.54l3.67-10.25h7.64l-3.9,10.95Zm-1.51-19.58a4.67,4.67,0,0,1-1.63,3.58,6,6,0,0,1-7.9,0,4.72,4.72,0,0,1,0-7.14,6,6,0,0,1,7.9,0A4.66,4.66,0,0,1,133.28,136.81Z"/><path d="M170.63,145.44c-.57,2.25-2.25,3.37-5.06,3.37H152.39a3.22,3.22,0,0,1,1.14,1.7,5.06,5.06,0,0,1,.36,2.13,7.21,7.21,0,0,1-3.1,5.52,11.68,11.68,0,0,1-6.94,1.93c-3.32,0-5.86-.62-7.65-2a5.54,5.54,0,0,1-2.37-4.66,6.24,6.24,0,0,1,.1-1.13,7.38,7.38,0,0,1,3.16-5,12.8,12.8,0,0,1,7.41-1.92Zm-22.95,3.37h-4.82L141,154.2a2.37,2.37,0,0,0-.14.8c0,1.21,1.12,1.81,3.36,1.81l.7,0Z"/><path d="M197.83,137.17q0,6.22-8.61,10.69a50.45,50.45,0,0,1-13.69,4.57L173,159.76h-7.68l7.68-21.6h7.62L177,148.28a23.05,23.05,0,0,0,7.24-2.88q4.41-2.76,4.57-6.42c.07-1.57-.45-2.6-1.58-3.1a10.3,10.3,0,0,0-3.64-.44H162l3.28-5.3H187a17.56,17.56,0,0,1,7.27,1.18A5.93,5.93,0,0,1,197.83,137.17Z"/><path d="M223.17,156.39a4.31,4.31,0,0,1-2.33,2.74,6.21,6.21,0,0,1-2.76.63h-9c-1.59,0-2.38-.58-2.38-1.73a5.52,5.52,0,0,1,.32-1.64l1.51-4.48-8,6.56a4.66,4.66,0,0,1-3.11,1.29h-4.34l9-25.43h7.58l-6.34,17.89L209.8,147a8.67,8.67,0,0,1,5.65-2,1.87,1.87,0,0,1,2.1,2.14,5,5,0,0,1-.38,1.79l-2.67,7.54Z"/><path d="M239.22,156.39a4.39,4.39,0,0,1-2.28,2.74,5.85,5.85,0,0,1-2.69.63h-8.32c-2,0-3-.84-3-2.53a4.51,4.51,0,0,1,.3-1.54l3.66-10.25h7.64l-3.89,10.95Zm-1.52-19.58a4.64,4.64,0,0,1-1.63,3.58,6,6,0,0,1-7.9,0,4.72,4.72,0,0,1,0-7.14,6,6,0,0,1,7.9,0A4.63,4.63,0,0,1,237.7,136.81Z"/><path d="M255.51,156.39a4.23,4.23,0,0,1-2.42,2.74,6.55,6.55,0,0,1-2.84.63h-8.11c-2.08,0-3.11-.71-3.11-2.13a3.82,3.82,0,0,1,.23-1.24l7.81-22h7.45l-7.85,22Z"/><path d="M281.8,156.39a4.13,4.13,0,0,1-2,2.55,6.34,6.34,0,0,1-3.22.82H264.84q-10.23,0-10.24-6.17a7,7,0,0,1,3.5-6.21,13,13,0,0,1,7.16-1.94h3.05a12.51,12.51,0,0,1,4.69.82q2.7,1.1,2.83,3.33a4.16,4.16,0,0,1-2.17,3.75h-7l2.27-4.53h-4.44l-1.73,5.07a2.87,2.87,0,0,0-.14.8q0,1.71,2.73,1.71Z"/><circle class="cls-2" cx="147.8" cy="147.8" r="143.3"/><path class="cls-3" d="M157.41,275.88a9.87,9.87,0,0,0,5.15,2.44,19.74,19.74,0,0,0,6.64,0,37.83,37.83,0,0,0,11.47-3.69c4.67-2.34,7.39-6.26,9-11.07,1.94-5.81,1.74-11.71.58-17.65a58.68,58.68,0,0,0-4.59-13c-2.61-5.72-5.18-11.45-7.76-17.18-.08-.17-.17-.34-.3-.6l-1.56.7a55.33,55.33,0,0,1-37.9,2.7A56.51,56.51,0,0,1,107,197.89a50.67,50.67,0,0,1-10.07-25.24c-1.41-12,.65-23.5,5-34.68a139.36,139.36,0,0,1,14.8-27.33c2.59-3.85,5.28-7.63,8-11.42a1.18,1.18,0,0,0,.15-1.34c-2.69-6.09-5.48-12.16-8-18.33a87.48,87.48,0,0,1-6.59-25.09,66.35,66.35,0,0,1,4.26-30.61,23.49,23.49,0,0,1,4.65-7.53,11.57,11.57,0,0,1,14.25-2.72,25.69,25.69,0,0,1,9.25,8,51.18,51.18,0,0,1,7.67,14.86c5.26,15.74,4.85,31.59.83,47.49a136.65,136.65,0,0,1-10.8,27.72c-.4.78-.75,1.6-1.22,2.34a2,2,0,0,0-.07,2.19c3.66,8,7.28,15.92,10.92,23.89.12.27.26.53.36.73,1.8-.52,3.51-1.12,5.27-1.51,7.82-1.77,15.27-.49,22.4,3a42.85,42.85,0,0,1,12.45,8.8,31.68,31.68,0,0,1,8.14,16.72,47.69,47.69,0,0,1-5.68,33,34.28,34.28,0,0,1-9.61,10.83c-.48.35-.42.61-.21,1.07,3.44,7.51,6.92,15,10.26,22.56,2.93,6.63,4.68,13.56,4.15,20.88-.86,12-7,20.23-18,24.81-5.12,2.13-10.48,3.31-16,2.39-11.07-1.83-18.78-8.09-22.78-18.54a16.07,16.07,0,1,1,17.84,10.79Zm-22.12-154.7c-1.11,1.94-2.11,3.73-3.14,5.5q-7.55,12.94-15.11,25.9a38.2,38.2,0,0,0-4.34,11c-2.22,10.14-.42,19.66,4.66,28.58,4.87,8.57,11.68,15.19,20.85,19,10.55,4.41,21.24,4.18,31.87.15,1.63-.61,3.18-1.44,4.82-2.2l-22.17-49.21-.4.17a3.14,3.14,0,0,0-.37.18,19,19,0,0,0-10.34,15.3c-.52,4.66.49,9.09,1.86,13.52a14.94,14.94,0,0,0,7.08,8.72c2.37,1.4,4.82,2.64,7.23,3.95l.75.41,0,.23a2.53,2.53,0,0,1-.61.06,46.38,46.38,0,0,1-15.22-4.29c-11.23-5.59-16.74-16-14.76-28.36,1.75-10.93,7.47-19.42,16.53-25.71l.88-.6C142,136.06,138.67,128.71,135.29,121.18Zm-6.56-27.7c1.06-1.51,2.06-2.91,3-4.33a80.76,80.76,0,0,0,7.3-12.21,65.18,65.18,0,0,0,4.53-17.13,49,49,0,0,0-.41-18.65,22.67,22.67,0,0,0-3.84-8.75,4.07,4.07,0,0,0-4.5-1.6,11.94,11.94,0,0,0-5.09,2.75,28,28,0,0,0-8.29,12.75A46.75,46.75,0,0,0,120.16,70C121.7,78.23,125.07,85.82,128.73,93.48Zm51.09,112.14A24.3,24.3,0,0,0,187.51,195a34.42,34.42,0,0,0,1.56-14.21c-.49-5.86-2.44-11.17-6.58-15.45-6.08-6.28-13.62-8.52-22.2-7.63-.69.07-1.37.21-2.17.34Z"/></g></g></svg>