<svg xmlns="http://www.w3.org/2000/svg" viewBox="0 0 293.61 293.61"><defs><style>.cls-1{fill:#e6e6e6;stroke:#e6e6e6;stroke-width:10px;}.cls-1,.cls-3,.cls-4{stroke-miterlimit:10;}.cls-2{font-size:40px;font-family:Magneto-Bold, Magneto;font-weight:700;}.cls-3{fill:none;stroke:#000;stroke-width:7px;}.cls-4{fill:#0f0c0e;stroke:#b3b3b3;opacity:0.13;}</style></defs><title>AudioPhile Logo</title><g id="Layer_2" data-name="Layer 2"><g id="Layer_1-2" data-name="Layer 1"><circle class="cls-1" cx="146.8" cy="147.23" r="132.19"/><text class="cls-2" transform="translate(23.87 158.46)">AudioPhile</text><circle class="cls-3" cx="146.8" cy="146.8" r="143.3"/><path class="cls-4" d="M156.31,276.37a9.86,9.86,0,0,0,5.16,2.44,19.85,19.85,0,0,0,6.66,0,38.31,38.31,0,0,0,11.5-3.7c4.7-2.35,7.42-6.29,9-11.11,1.94-5.83,1.74-11.75.58-17.71a58.73,58.73,0,0,0-4.61-13.05c-2.62-5.73-5.19-11.49-7.78-17.23-.08-.18-.17-.34-.31-.61l-1.55.71a55.58,55.58,0,0,1-38,2.71,56.61,56.61,0,0,1-31.22-20.71,50.87,50.87,0,0,1-10.11-25.31c-1.41-12,.66-23.58,5-34.8a140.69,140.69,0,0,1,14.84-27.41c2.6-3.86,5.31-7.65,8-11.46a1.19,1.19,0,0,0,.16-1.34c-2.71-6.11-5.5-12.2-8-18.39A87.64,87.64,0,0,1,109,54.26a66.41,66.41,0,0,1,4.27-30.72A23.24,23.24,0,0,1,117.9,16c4-4.24,9.06-5.23,14.29-2.73a25.74,25.74,0,0,1,9.28,8,51.5,51.5,0,0,1,7.69,14.91C154.44,52,154,67.9,150,83.84a136.7,136.7,0,0,1-10.83,27.81c-.4.79-.75,1.6-1.22,2.35a2.06,2.06,0,0,0-.08,2.2c3.68,8,7.31,16,11,24,.12.27.26.53.37.73,1.8-.52,3.51-1.12,5.28-1.51,7.85-1.77,15.32-.5,22.47,3a43.1,43.1,0,0,1,12.49,8.82A31.81,31.81,0,0,1,197.59,168a47.78,47.78,0,0,1-5.69,33.15A34.44,34.44,0,0,1,182.26,212c-.49.36-.43.62-.21,1.08,3.44,7.54,6.94,15,10.29,22.63,2.93,6.65,4.7,13.6,4.17,20.94-.87,12-7.06,20.3-18.12,24.9-5.13,2.13-10.51,3.31-16.06,2.39-11.11-1.84-18.84-8.12-22.86-18.6a16.13,16.13,0,1,1,17.89,10.83C157,276.2,156.73,276.28,156.31,276.37Zm-22.2-155.18c-1.1,1.94-2.11,3.73-3.14,5.51q-7.57,13-15.16,26a38.12,38.12,0,0,0-4.35,11c-2.24,10.18-.42,19.73,4.66,28.68,4.9,8.59,11.73,15.23,20.93,19.08,10.58,4.42,21.3,4.18,32,.15,1.63-.62,3.18-1.45,4.83-2.21-7.46-16.55-14.85-33-22.24-49.37l-.4.17-.37.18a19,19,0,0,0-10.37,15.35c-.52,4.67.49,9.12,1.86,13.56a15,15,0,0,0,7.11,8.75c2.37,1.4,4.82,2.65,7.24,4l.76.4,0,.24a3.34,3.34,0,0,1-.62.06,46.38,46.38,0,0,1-15.26-4.3c-11.27-5.61-16.79-16-14.8-28.45,1.75-11,7.49-19.49,16.58-25.8l.88-.6ZM127.54,93.4c1.06-1.52,2.06-2.93,3-4.35A80.83,80.83,0,0,0,137.9,76.8a65.56,65.56,0,0,0,4.54-17.18A48.88,48.88,0,0,0,142,40.91a22.82,22.82,0,0,0-3.85-8.78,4.1,4.1,0,0,0-4.52-1.6,11.88,11.88,0,0,0-5.1,2.76,28.09,28.09,0,0,0-8.32,12.79,46.83,46.83,0,0,0-1.3,23.73C120.48,78.09,123.87,85.71,127.54,93.4Zm51.25,112.49a24.43,24.43,0,0,0,7.71-10.67A34.66,34.66,0,0,0,188.07,181c-.49-5.88-2.45-11.21-6.61-15.5-6.1-6.3-13.66-8.54-22.27-7.65-.69.07-1.37.21-2.17.34Z"/></g></g></svg>