<svg xmlns="http://www.w3.org/2000/svg" viewBox="0 0 55 55"><defs><style>.cls-1{fill:#343a40;}.cls-2{fill:#fff;}</style></defs><title>Asset 4</title><g id="Layer_2" data-name="Layer 2"><g id="Layer_1-2" data-name="Layer 1"><circle class="cls-1" cx="27.5" cy="27.5" r="27.5"/><path class="cls-2" d="M17.85,23.57c-.15.58-.66.87-1.51.87H14.39c-.61,0-.92-.18-.92-.53a1.38,1.38,0,0,1,.12-.48l.9-2.35-2.7,3a1.26,1.26,0,0,1-.95.48.71.71,0,0,1-.2,0c-.42,0-.62-.25-.62-.62a1.29,1.29,0,0,1,.09-.45L11.45,20,8.1,24a1.23,1.23,0,0,1-1,.41H6L8.2,18.16h-3L6,16.79H9.64c.5,0,.75.18.75.55a1.62,1.62,0,0,1-.11.51L9.11,21.22l2.34-2.65a3.81,3.81,0,0,1,.69-.66,1.84,1.84,0,0,1,1-.25.67.67,0,0,1,.38.13.64.64,0,0,1,.3.58,1.47,1.47,0,0,1-.12.54l-1.06,2.73,2.1-2.1a4,4,0,0,1,.59-.54,1.57,1.57,0,0,1,.73-.14.8.8,0,0,1,.41.14.7.7,0,0,1,.32.62,1.31,1.31,0,0,1-.11.52l-1.3,3.43Z"/><path class="cls-2" d="M24.87,23.57a1.21,1.21,0,0,1-1.33.87H21.48c-.59,0-.88-.19-.88-.57a1.86,1.86,0,0,1-1.46.68,1.42,1.42,0,0,1-1-.39,1.39,1.39,0,0,1-.4-1,2.13,2.13,0,0,1,.87-1.79,3.15,3.15,0,0,1,2-.6h3.1l-1,2.83Zm-3.5-2h-1.2l-.38,1.27a.6.6,0,0,0,0,.22c0,.31.31.47.93.47Z"/><path class="cls-2" d="M31.44,23.57a.79.79,0,0,1-.41.62,1.57,1.57,0,0,1-.87.25H26c-.79,0-1.19-.24-1.19-.73,0,0,0-.09,0-.14a.68.68,0,0,1,.35-.51,1.16,1.16,0,0,1,.6-.15,3.53,3.53,0,0,1,1.59.65,1.17,1.17,0,0,0,.29-.73,3.84,3.84,0,0,0-.23-.84l-.62.56H25.74l1.45-1.34a1.45,1.45,0,0,1-.14-.28,1.52,1.52,0,0,1-.07-.45l1.34-1.43c.6.1.9.38.9.82a1.25,1.25,0,0,1-.24.73c.14.35.27.71.41,1.06a3.37,3.37,0,0,1,.25,1.11,1,1,0,0,1-.37.8Z"/><path class="cls-2" d="M36.27,23.57a1.23,1.23,0,0,1-1.35.87H32.14c-.53,0-.8-.19-.8-.57a.89.89,0,0,1,.06-.3l.69-2H31.2l.34-.87A3.73,3.73,0,0,0,33,20.12a5.31,5.31,0,0,0,1.12-1.56h1.06l-.77,2.18h1.4a1.32,1.32,0,0,1-1.37.87H34l-.67,2Z"/><path class="cls-2" d="M43.12,23.57a1.09,1.09,0,0,1-.52.66,1.65,1.65,0,0,1-.83.21h-3q-2.64,0-2.64-1.59a1.83,1.83,0,0,1,.9-1.61,3.37,3.37,0,0,1,1.85-.5h.78a3.28,3.28,0,0,1,1.22.21,1,1,0,0,1,.73.86,1.09,1.09,0,0,1-.56,1h-1.8l.58-1.17H38.66l-.45,1.31a.59.59,0,0,0,0,.21c0,.29.24.44.71.44Z"/><path class="cls-2" d="M49.46,23.57a.75.75,0,0,1-.42.64,1.44,1.44,0,0,1-.77.23H46.19c-.55,0-.83-.23-.83-.69a1.33,1.33,0,0,1,.07-.37l.62-1.77H44.89l-.6,1.56a.62.62,0,0,1-.66.4h-.58l.72-2a.91.91,0,0,1-.55-.34.93.93,0,0,1-.21-.6,1.07,1.07,0,0,1,.58-1,2.23,2.23,0,0,1,1.15-.28h.88l-.45,1.32h3l-1,2.83Z"/><path class="cls-2" d="M13.05,34.08a.81.81,0,0,1-.38.66,1.37,1.37,0,0,1-.75.21H9.82a.88.88,0,0,1-.65-.22,2.53,2.53,0,0,1-.37-.65L7.73,31.71a6.15,6.15,0,0,0,.93-.31c.47-.17.77-.29.89-.35q1.08-.57,1.08-1.41c0-.64-.46-1-1.37-1H3.71l.85-1.37H10c2,0,3,.62,3,1.88,0,1.06-1,2-3.07,2.78l1,2.11ZM8.5,29.38,6.52,35h-2l2-5.57Z"/><path class="cls-2" d="M19.9,34.08a1.08,1.08,0,0,1-.53.66,1.63,1.63,0,0,1-.83.21h-3c-1.77,0-2.65-.53-2.65-1.59a1.8,1.8,0,0,1,.91-1.6,3.25,3.25,0,0,1,1.84-.5h.79a3.19,3.19,0,0,1,1.21.21,1,1,0,0,1,.73.86,1.07,1.07,0,0,1-.56,1H16l.59-1.17H15.43L15,33.44a.51.51,0,0,0,0,.2c0,.3.24.44.71.44Z"/><path class="cls-2" d="M24.08,34.08a1.09,1.09,0,0,1-.62.71,1.7,1.7,0,0,1-.74.16H20.63c-.54,0-.8-.18-.8-.55a1,1,0,0,1,.06-.32l2-5.68h1.93l-2,5.68Z"/><path class="cls-2" d="M30.88,34.08a1.06,1.06,0,0,1-.52.66,1.63,1.63,0,0,1-.83.21h-3q-2.64,0-2.64-1.59a1.81,1.81,0,0,1,.9-1.6,3.31,3.31,0,0,1,1.85-.5h.79a3.23,3.23,0,0,1,1.21.21,1,1,0,0,1,.73.86,1.07,1.07,0,0,1-.56,1H27l.59-1.17H26.42L26,33.44a.75.75,0,0,0,0,.2c0,.3.23.44.7.44Z"/><path class="cls-2" d="M37.89,34.08a1.23,1.23,0,0,1-1.34.87H34.49c-.58,0-.88-.18-.88-.56a1.85,1.85,0,0,1-1.45.67,1.43,1.43,0,0,1-1-.39,1.38,1.38,0,0,1-.39-1,2.11,2.11,0,0,1,.87-1.79,3.1,3.1,0,0,1,1.95-.6h3.1l-1,2.82Zm-3.51-1.95h-1.2l-.38,1.26a1,1,0,0,0,0,.22c0,.32.3.47.92.47Z"/><path class="cls-2" d="M44.45,34.08a.77.77,0,0,1-.41.62,1.57,1.57,0,0,1-.86.25H39c-.79,0-1.19-.24-1.19-.72,0,0,0-.09,0-.15a.69.69,0,0,1,.35-.5,1,1,0,0,1,.6-.15,3.49,3.49,0,0,1,1.59.64,1.12,1.12,0,0,0,.29-.73,3.84,3.84,0,0,0-.23-.84l-.62.56H38.76l1.44-1.33a2,2,0,0,1-.13-.28A1.34,1.34,0,0,1,40,31l1.34-1.42c.6.1.9.37.9.82a1.26,1.26,0,0,1-.23.72c.13.36.27.71.4,1.07a3.27,3.27,0,0,1,.25,1.11,1,1,0,0,1-.37.79Z"/><path class="cls-2" d="M51.29,34.08a1.08,1.08,0,0,1-.53.66,1.63,1.63,0,0,1-.83.21h-3c-1.77,0-2.65-.53-2.65-1.59a1.8,1.8,0,0,1,.91-1.6,3.25,3.25,0,0,1,1.84-.5h.79a3.19,3.19,0,0,1,1.21.21,1,1,0,0,1,.73.86,1.07,1.07,0,0,1-.56,1h-1.8L48,32.13H46.82l-.44,1.31a.51.51,0,0,0,0,.2c0,.3.24.44.71.44Z"/></g></g></svg>